<svg xmlns="http://www.w3.org/2000/svg" width="256" height="256" viewBox="0 0 100 100"><rect width="100" height="100" rx="20" fill="#4a90e2"></rect><path fill="#fff" d="M22.86 72.41L22.86 72.41Q28.89 72.41 32 69.67Q35.10 66.92 35.10 62.60L35.10 62.60Q35.10 58.82 32.72 56.48Q30.33 54.14 25.20 52.61L25.20 52.61L17.38 50.27Q11.61 48.56 8.33 45.23Q5.04 41.90 5.04 36.23L5.04 36.23Q5.04 32.81 6.35 30.06Q7.65 27.32 10.08 25.43Q12.51 23.54 15.89 22.51Q19.26 21.47 23.49 21.47L23.49 21.47Q27.09 21.47 30.20 22.05Q33.30 22.64 35.60 23.68Q37.89 24.71 39.16 25.97Q40.41 27.23 40.41 28.58L40.41 28.58Q40.41 29.84 39.78 30.74Q39.16 31.64 38.16 32.18L38.16 32.18Q35.82 30.38 32.09 29.03Q28.35 27.68 23.76 27.68L23.76 27.68Q18.45 27.68 15.44 29.93Q12.42 32.18 12.42 36.23L12.42 36.23Q12.42 39.38 14.58 41.36Q16.74 43.34 21.79 44.78L21.79 44.78L27.27 46.40Q34.38 48.47 38.48 52.20Q42.57 55.94 42.57 62.60L42.57 62.60Q42.57 69.71 37.45 74.12Q32.31 78.53 22.86 78.53L22.86 78.53Q18.72 78.53 15.35 77.81Q11.97 77.09 9.59 75.92Q7.20 74.75 5.90 73.36Q4.59 71.96 4.59 70.61L4.59 70.61Q4.59 69.08 5.54 68.05Q6.48 67.01 7.74 66.56L7.74 66.56Q8.73 67.55 10.17 68.58Q11.61 69.62 13.50 70.47Q15.39 71.33 17.73 71.87Q20.07 72.41 22.86 72.41ZM93.25 36.41L93.25 36.41Q93.25 40.28 91.40 43.56Q89.56 46.85 85.23 48.65L85.23 48.65Q90.36 50.36 92.88 54.00Q95.41 57.65 95.41 62.24L95.41 62.24Q95.41 70.43 89.51 74.39Q83.61 78.35 72.72 78.35L72.72 78.35Q68.94 78.35 65.39 78.03Q61.84 77.72 58.59 76.82L58.59 76.82Q54.81 75.74 54.81 72.68L54.81 72.68L54.81 26.60Q54.81 23.99 57.78 23.18L57.78 23.18Q60.84 22.28 64.27 21.97Q67.69 21.65 71.73 21.65L71.73 21.65Q81.91 21.65 87.57 25.25Q93.25 28.85 93.25 36.41ZM74.25 51.89L62.02 51.89L62.02 71.33Q64.17 71.78 67.01 72.05Q69.84 72.32 72.72 72.32L72.72 72.32Q80.19 72.32 84.06 69.84Q87.94 67.37 87.94 62.06L87.94 62.06Q87.94 57.38 84.47 54.64Q81.00 51.89 74.25 51.89L74.25 51.89ZM62.02 28.49L62.02 45.95L74.25 45.95Q79.92 45.95 82.85 43.43Q85.78 40.91 85.78 36.59L85.78 36.59Q85.78 27.68 71.73 27.68L71.73 27.68Q68.58 27.68 66.29 27.91Q63.99 28.13 62.02 28.49L62.02 28.49Z"></path></svg>